<svg data-v-423bf9ae="" xmlns="http://www.w3.org/2000/svg" viewBox="0 0 583 90" class="iconLeftSlogan"><!----><!----><!----><g data-v-423bf9ae="" id="a91c8fdd-d588-4f27-abe3-90b22852c2dc" fill="black" transform="matrix(5.870841333886128,0,0,5.870841333886128,114.72918231824937,-19.080234811967074)"><path d="M4.80 13.27C4.89 13.41 4.90 13.47 4.98 13.47L5.03 13.47C5.10 13.47 5.12 13.40 5.19 13.27L9.77 3.65C9.81 3.54 9.79 3.43 9.63 3.43L8.82 3.43C8.69 3.43 8.62 3.47 8.54 3.65L5.01 11.34L5.00 11.34L1.47 3.65C1.39 3.47 1.33 3.43 1.18 3.43L0.36 3.43C0.24 3.43 0.18 3.53 0.24 3.65ZM11.41 13.01C11.41 13.17 11.47 13.23 11.63 13.23L12.31 13.23C12.47 13.23 12.52 13.17 12.52 13.01L12.52 3.65C12.52 3.49 12.47 3.43 12.31 3.43L11.63 3.43C11.47 3.43 11.41 3.49 11.41 3.65ZM18.55 4.26C19.53 4.26 20.45 4.58 21.35 5.18C21.49 5.29 21.57 5.24 21.66 5.08L21.92 4.65C21.98 4.51 22.01 4.42 21.85 4.34C20.79 3.70 19.85 3.28 18.41 3.28C15.69 3.28 14.88 5.12 14.88 6.20C14.88 8.06 16.66 8.53 18.19 8.74C20.02 8.99 21.07 9.37 21.07 10.53C21.07 11.98 19.73 12.40 18.44 12.40C17.39 12.40 16.23 12.08 15.33 11.47C15.16 11.37 15.11 11.40 15.01 11.55L14.74 12.00C14.66 12.15 14.66 12.22 14.80 12.31C15.86 13.05 17.09 13.38 18.58 13.38C20.99 13.38 22.15 11.98 22.15 10.49C22.15 8.61 20.61 8.05 18.80 7.81C17.26 7.62 15.96 7.32 15.96 6.17C15.96 5.45 16.42 4.26 18.55 4.26ZM24.35 13.01C24.35 13.17 24.40 13.23 24.57 13.23L25.24 13.23C25.41 13.23 25.45 13.17 25.45 13.01L25.45 3.65C25.45 3.49 25.41 3.43 25.24 3.43L24.57 3.43C24.40 3.43 24.35 3.49 24.35 3.65ZM27.59 8.33C27.59 11.12 29.85 13.41 32.61 13.41C35.36 13.41 37.62 11.12 37.62 8.33C37.62 5.54 35.36 3.25 32.61 3.25C29.85 3.25 27.59 5.54 27.59 8.33ZM28.71 8.33C28.71 6.22 30.42 4.23 32.61 4.23C34.82 4.23 36.50 6.22 36.50 8.33C36.50 10.43 34.82 12.43 32.61 12.43C30.42 12.43 28.71 10.43 28.71 8.33ZM40.77 5.47L47.28 13.30C47.36 13.38 47.42 13.41 47.49 13.41L47.56 13.41C47.64 13.41 47.67 13.40 47.67 13.30L47.67 3.65C47.67 3.47 47.63 3.43 47.46 3.43L46.79 3.43C46.62 3.43 46.56 3.47 46.56 3.65L46.56 11.13L40.04 3.35C39.98 3.28 39.94 3.25 39.86 3.25L39.79 3.25C39.69 3.25 39.66 3.26 39.66 3.36L39.66 13.01C39.66 13.17 39.72 13.23 39.89 13.23L40.54 13.23C40.71 13.23 40.77 13.17 40.77 13.01ZM49.80 8.33C49.80 11.12 52.05 13.41 54.81 13.41C57.57 13.41 59.82 11.12 59.82 8.33C59.82 5.54 57.57 3.25 54.81 3.25C52.05 3.25 49.80 5.54 49.80 8.33ZM50.92 8.33C50.92 6.22 52.63 4.23 54.81 4.23C57.02 4.23 58.70 6.22 58.70 8.33C58.70 10.43 57.02 12.43 54.81 12.43C52.63 12.43 50.92 10.43 50.92 8.33ZM66.21 4.23C67.34 4.23 68.46 4.80 69.10 5.45C69.24 5.57 69.33 5.56 69.43 5.45L69.85 4.98C69.96 4.86 70 4.80 69.87 4.68C68.94 3.79 67.56 3.25 66.21 3.25C63.45 3.25 61.22 5.54 61.22 8.33C61.22 11.12 63.45 13.41 66.21 13.41C67.58 13.41 69.05 12.85 69.97 11.94C70.13 11.79 70.20 11.66 70.20 11.44L70.20 8.34C70.20 8.19 70.15 8.12 69.99 8.12L66.42 8.12C66.25 8.12 66.19 8.18 66.19 8.34L66.19 8.88C66.19 9.04 66.25 9.09 66.42 9.09L69.09 9.09L69.09 11.35C68.42 11.96 67.44 12.43 66.21 12.43C64.02 12.43 62.34 10.43 62.34 8.33C62.34 6.22 64.02 4.23 66.21 4.23ZM74.94 9.39L74.94 13.01C74.94 13.17 75.00 13.23 75.17 13.23L75.80 13.23C75.96 13.23 76.02 13.17 76.02 13.01L76.02 9.39L79.67 3.65C79.76 3.50 79.74 3.43 79.58 3.43L78.81 3.43C78.67 3.43 78.61 3.47 78.50 3.65L75.49 8.36L72.46 3.65C72.38 3.49 72.31 3.43 72.17 3.43L71.37 3.43C71.22 3.43 71.18 3.49 71.27 3.65Z"></path></g><!----><g data-v-423bf9ae="" id="51ec50d5-8e2a-45e4-8a88-7f2d49e655fd" transform="matrix(1,0,0,1,-2,-5)" stroke="none" fill="black"><path d="M5 74h90v3H5zM8 80h84v3H8zM11 86h78v3H11zM14 92h72v3H14zM42 54l24-16-24-16z"></path><path d="M2 5v66h96V5H2zm48 57c-13.3 0-24-10.7-24-24s10.7-24 24-24 24 10.7 24 24-10.7 24-24 24z"></path></g><!----><g data-v-423bf9ae="" id="e81f57cf-66ab-4c6f-8eaa-aa419daa5e56" fill="black" transform="matrix(1.1547337124470214,0,0,1.1547337124470214,115.76905470738899,57.57506026466105)"><path d="M7.71 2.21L0.20 2.21L0.20 3.22L3.43 3.22L3.43 11.48L4.48 11.48L4.48 3.22L7.71 3.22ZM22.86 3.22L22.86 2.21L16.04 2.21L16.04 11.48L22.86 11.48L22.86 10.47L17.09 10.47L17.09 7.35L22.25 7.35L22.25 6.33L17.09 6.33L17.09 3.22ZM35.36 10.57C33.11 10.57 31.85 8.93 31.85 6.85C31.85 4.76 33.11 3.12 35.36 3.12C36.89 3.12 37.90 3.85 38.37 4.98L39.48 4.98C38.89 3.29 37.38 2.10 35.28 2.10C32.49 2.10 30.80 4.21 30.80 6.85C30.80 9.48 32.49 11.59 35.28 11.59C37.38 11.59 38.89 10.40 39.48 8.71L38.37 8.71C37.90 9.84 36.89 10.57 35.36 10.57ZM54.49 2.21L54.49 6.33L49.10 6.33L49.10 2.21L48.05 2.21L48.05 11.48L49.10 11.48L49.10 7.35L54.49 7.35L54.49 11.48L55.54 11.48L55.54 2.21ZM71.75 2.21L71.75 10.01L66.02 2.21L64.81 2.21L64.81 11.48L65.86 11.48L65.86 3.65L71.58 11.48L72.80 11.48L72.80 2.21ZM86.18 2.10C83.37 2.10 81.48 4.21 81.48 6.85C81.48 9.48 83.37 11.59 86.18 11.59C89.00 11.59 90.89 9.48 90.89 6.85C90.89 4.21 89.00 2.10 86.18 2.10ZM86.18 10.57C83.93 10.57 82.53 8.93 82.53 6.85C82.53 4.76 83.93 3.12 86.18 3.12C88.44 3.12 89.84 4.76 89.84 6.85C89.84 8.93 88.44 10.57 86.18 10.57ZM99.57 2.21L99.57 11.48L105.67 11.48L105.67 10.47L100.62 10.47L100.62 2.21ZM117.74 2.10C114.93 2.10 113.04 4.21 113.04 6.85C113.04 9.48 114.93 11.59 117.74 11.59C120.55 11.59 122.44 9.48 122.44 6.85C122.44 4.21 120.55 2.10 117.74 2.10ZM117.74 10.57C115.49 10.57 114.09 8.93 114.09 6.85C114.09 4.76 115.49 3.12 117.74 3.12C119.99 3.12 121.39 4.76 121.39 6.85C121.39 8.93 119.99 10.57 117.74 10.57ZM135.10 2.10C132.31 2.10 130.54 4.21 130.54 6.85C130.54 9.48 132.24 11.59 135.07 11.59C136.75 11.59 137.84 10.74 138.43 9.84L138.43 11.48L139.40 11.48L139.40 6.55L135.04 6.55L135.04 7.50L138.43 7.50C138.43 9.44 136.84 10.57 135.16 10.57C132.90 10.57 131.59 8.93 131.59 6.85C131.59 4.76 132.93 3.12 135.18 3.12C136.60 3.12 137.61 3.74 138.17 4.73L139.31 4.73C138.63 3.18 137.09 2.10 135.10 2.10ZM151.68 7.81L155.55 2.21L154.28 2.21L151.14 6.72L148.01 2.21L146.73 2.21L150.63 7.81L150.63 11.48L151.68 11.48ZM179.24 3.70L181.75 11.48L182.94 11.48L185.82 2.21L184.72 2.21L182.34 10.00L179.84 2.21L178.64 2.21L176.15 10.00L173.77 2.21L172.66 2.21L175.55 11.48L176.74 11.48ZM195.13 2.21L194.08 2.21L194.08 11.48L195.13 11.48ZM210.98 2.21L203.46 2.21L203.46 3.22L206.70 3.22L206.70 11.48L207.75 11.48L207.75 3.22L210.98 3.22ZM225.75 2.21L225.75 6.33L220.36 6.33L220.36 2.21L219.31 2.21L219.31 11.48L220.36 11.48L220.36 7.35L225.75 7.35L225.75 11.48L226.80 11.48L226.80 2.21ZM252.52 2.21L249.31 10.29L246.11 2.21L244.96 2.21L248.71 11.48L249.91 11.48L253.67 2.21ZM262.89 2.21L261.84 2.21L261.84 11.48L262.89 11.48ZM272.78 4.65C272.78 4.03 273.14 3.08 275.24 3.08C276.93 3.08 277.72 3.82 277.83 4.75L278.91 4.75C278.82 3.36 277.70 2.10 275.24 2.10C272.92 2.10 271.75 3.15 271.75 4.66C271.75 7.84 278.10 6.69 278.10 8.96C278.10 10.05 277.12 10.60 275.55 10.60C273.94 10.60 272.64 10.05 272.57 8.71L271.47 8.71C271.61 10.37 272.73 11.59 275.48 11.59C277.76 11.59 279.15 10.64 279.15 8.92C279.15 5.68 272.78 6.80 272.78 4.65ZM288.82 2.21L287.77 2.21L287.77 11.48L288.82 11.48ZM302.20 2.10C299.39 2.10 297.50 4.21 297.50 6.85C297.50 9.48 299.39 11.59 302.20 11.59C305.02 11.59 306.91 9.48 306.91 6.85C306.91 4.21 305.02 2.10 302.20 2.10ZM302.20 10.57C299.95 10.57 298.55 8.93 298.55 6.85C298.55 4.76 299.95 3.12 302.20 3.12C304.46 3.12 305.86 4.76 305.86 6.85C305.86 8.93 304.46 10.57 302.20 10.57ZM322.53 2.21L322.53 10.01L316.81 2.21L315.59 2.21L315.59 11.48L316.64 11.48L316.64 3.65L322.36 11.48L323.58 11.48L323.58 2.21Z"></path></g></svg>