<svg data-v-fde0c5aa="" xmlns="http://www.w3.org/2000/svg" viewBox="0 0 300 300" class="icon"><!----><defs data-v-fde0c5aa=""><!----></defs><rect data-v-fde0c5aa="" fill="transparent" x="0" y="0" width="300px" height="300px" class="logo-background-square"></rect><!----><defs data-v-fde0c5aa=""><linearGradient data-v-fde0c5aa="" gradientTransform="rotate(25)" id="77121f5e-eba0-4fb6-9381-05e0b06d81b7" x1="0%" y1="0%" x2="100%" y2="0%"><stop data-v-fde0c5aa="" offset="0%" stop-color="#E90DCA" stop-opacity="1"></stop><stop data-v-fde0c5aa="" offset="100%" stop-color="#1536F1" stop-opacity="1"></stop></linearGradient></defs><g data-v-fde0c5aa="" id="679663d1-191d-421c-88a6-6d0f89ac43a2" fill="url(#77121f5e-eba0-4fb6-9381-05e0b06d81b7)" stroke="none" transform="matrix(2.2916666666666665,0,0,2.2916666666666665,35.416666666666664,35.41666666666667)"><path d="M5 74h90v3H5zM8 80h84v3H8zM11 86h78v3H11zM14 92h72v3H14zM42 54l24-16-24-16z"></path><path d="M2 5v66h96V5H2zm48 57c-13.3 0-24-10.7-24-24s10.7-24 24-24 24 10.7 24 24-10.7 24-24 24z"></path></g><!----></svg>